<?xml version="1.0" standalone="no"?>
<svg xmlns="http://www.w3.org/2000/svg" version="1.1" width="1000" height="1000">
	<!-- Created with https://api.qrserver.com (QR Code API, see goQR.me/api for information) -->
	<title>QR Code</title>
	<desc>https://zaki-alfajary.surge.sh</desc>
	<rect style="fill:rgb(255, 255, 255);fill-opacity:1" x="0" y="0" width="1000" height="1000" />
	<g id="elements">
		<path style="fill:rgb(0, 0, 0)" d="M 0,0 l 40,0 0,40 -40,0 z M 40,0 l 40,0 0,40 -40,0 z M 80,0 l 40,0 0,40 -40,0 z M 120,0 l 40,0 0,40 -40,0 z M 160,0 l 40,0 0,40 -40,0 z M 200,0 l 40,0 0,40 -40,0 z M 240,0 l 40,0 0,40 -40,0 z M 440,0 l 40,0 0,40 -40,0 z M 520,0 l 40,0 0,40 -40,0 z M 640,0 l 40,0 0,40 -40,0 z M 720,0 l 40,0 0,40 -40,0 z M 760,0 l 40,0 0,40 -40,0 z M 800,0 l 40,0 0,40 -40,0 z M 840,0 l 40,0 0,40 -40,0 z M 880,0 l 40,0 0,40 -40,0 z M 920,0 l 40,0 0,40 -40,0 z M 960,0 l 40,0 0,40 -40,0 z M 0,40 l 40,0 0,40 -40,0 z M 240,40 l 40,0 0,40 -40,0 z M 320,40 l 40,0 0,40 -40,0 z M 360,40 l 40,0 0,40 -40,0 z M 520,40 l 40,0 0,40 -40,0 z M 600,40 l 40,0 0,40 -40,0 z M 640,40 l 40,0 0,40 -40,0 z M 720,40 l 40,0 0,40 -40,0 z M 960,40 l 40,0 0,40 -40,0 z M 0,80 l 40,0 0,40 -40,0 z M 80,80 l 40,0 0,40 -40,0 z M 120,80 l 40,0 0,40 -40,0 z M 160,80 l 40,0 0,40 -40,0 z M 240,80 l 40,0 0,40 -40,0 z M 360,80 l 40,0 0,40 -40,0 z M 440,80 l 40,0 0,40 -40,0 z M 480,80 l 40,0 0,40 -40,0 z M 600,80 l 40,0 0,40 -40,0 z M 720,80 l 40,0 0,40 -40,0 z M 800,80 l 40,0 0,40 -40,0 z M 840,80 l 40,0 0,40 -40,0 z M 880,80 l 40,0 0,40 -40,0 z M 960,80 l 40,0 0,40 -40,0 z M 0,120 l 40,0 0,40 -40,0 z M 80,120 l 40,0 0,40 -40,0 z M 120,120 l 40,0 0,40 -40,0 z M 160,120 l 40,0 0,40 -40,0 z M 240,120 l 40,0 0,40 -40,0 z M 320,120 l 40,0 0,40 -40,0 z M 360,120 l 40,0 0,40 -40,0 z M 520,120 l 40,0 0,40 -40,0 z M 560,120 l 40,0 0,40 -40,0 z M 600,120 l 40,0 0,40 -40,0 z M 720,120 l 40,0 0,40 -40,0 z M 800,120 l 40,0 0,40 -40,0 z M 840,120 l 40,0 0,40 -40,0 z M 880,120 l 40,0 0,40 -40,0 z M 960,120 l 40,0 0,40 -40,0 z M 0,160 l 40,0 0,40 -40,0 z M 80,160 l 40,0 0,40 -40,0 z M 120,160 l 40,0 0,40 -40,0 z M 160,160 l 40,0 0,40 -40,0 z M 240,160 l 40,0 0,40 -40,0 z M 440,160 l 40,0 0,40 -40,0 z M 640,160 l 40,0 0,40 -40,0 z M 720,160 l 40,0 0,40 -40,0 z M 800,160 l 40,0 0,40 -40,0 z M 840,160 l 40,0 0,40 -40,0 z M 880,160 l 40,0 0,40 -40,0 z M 960,160 l 40,0 0,40 -40,0 z M 0,200 l 40,0 0,40 -40,0 z M 240,200 l 40,0 0,40 -40,0 z M 320,200 l 40,0 0,40 -40,0 z M 400,200 l 40,0 0,40 -40,0 z M 480,200 l 40,0 0,40 -40,0 z M 600,200 l 40,0 0,40 -40,0 z M 720,200 l 40,0 0,40 -40,0 z M 960,200 l 40,0 0,40 -40,0 z M 0,240 l 40,0 0,40 -40,0 z M 40,240 l 40,0 0,40 -40,0 z M 80,240 l 40,0 0,40 -40,0 z M 120,240 l 40,0 0,40 -40,0 z M 160,240 l 40,0 0,40 -40,0 z M 200,240 l 40,0 0,40 -40,0 z M 240,240 l 40,0 0,40 -40,0 z M 320,240 l 40,0 0,40 -40,0 z M 400,240 l 40,0 0,40 -40,0 z M 480,240 l 40,0 0,40 -40,0 z M 560,240 l 40,0 0,40 -40,0 z M 640,240 l 40,0 0,40 -40,0 z M 720,240 l 40,0 0,40 -40,0 z M 760,240 l 40,0 0,40 -40,0 z M 800,240 l 40,0 0,40 -40,0 z M 840,240 l 40,0 0,40 -40,0 z M 880,240 l 40,0 0,40 -40,0 z M 920,240 l 40,0 0,40 -40,0 z M 960,240 l 40,0 0,40 -40,0 z M 440,280 l 40,0 0,40 -40,0 z M 560,280 l 40,0 0,40 -40,0 z M 640,280 l 40,0 0,40 -40,0 z M 0,320 l 40,0 0,40 -40,0 z M 40,320 l 40,0 0,40 -40,0 z M 80,320 l 40,0 0,40 -40,0 z M 120,320 l 40,0 0,40 -40,0 z M 160,320 l 40,0 0,40 -40,0 z M 240,320 l 40,0 0,40 -40,0 z M 280,320 l 40,0 0,40 -40,0 z M 320,320 l 40,0 0,40 -40,0 z M 360,320 l 40,0 0,40 -40,0 z M 400,320 l 40,0 0,40 -40,0 z M 440,320 l 40,0 0,40 -40,0 z M 480,320 l 40,0 0,40 -40,0 z M 520,320 l 40,0 0,40 -40,0 z M 560,320 l 40,0 0,40 -40,0 z M 600,320 l 40,0 0,40 -40,0 z M 680,320 l 40,0 0,40 -40,0 z M 760,320 l 40,0 0,40 -40,0 z M 840,320 l 40,0 0,40 -40,0 z M 920,320 l 40,0 0,40 -40,0 z M 0,360 l 40,0 0,40 -40,0 z M 40,360 l 40,0 0,40 -40,0 z M 280,360 l 40,0 0,40 -40,0 z M 320,360 l 40,0 0,40 -40,0 z M 360,360 l 40,0 0,40 -40,0 z M 440,360 l 40,0 0,40 -40,0 z M 480,360 l 40,0 0,40 -40,0 z M 560,360 l 40,0 0,40 -40,0 z M 640,360 l 40,0 0,40 -40,0 z M 760,360 l 40,0 0,40 -40,0 z M 920,360 l 40,0 0,40 -40,0 z M 0,400 l 40,0 0,40 -40,0 z M 80,400 l 40,0 0,40 -40,0 z M 200,400 l 40,0 0,40 -40,0 z M 240,400 l 40,0 0,40 -40,0 z M 360,400 l 40,0 0,40 -40,0 z M 520,400 l 40,0 0,40 -40,0 z M 600,400 l 40,0 0,40 -40,0 z M 720,400 l 40,0 0,40 -40,0 z M 800,400 l 40,0 0,40 -40,0 z M 840,400 l 40,0 0,40 -40,0 z M 920,400 l 40,0 0,40 -40,0 z M 960,400 l 40,0 0,40 -40,0 z M 40,440 l 40,0 0,40 -40,0 z M 80,440 l 40,0 0,40 -40,0 z M 120,440 l 40,0 0,40 -40,0 z M 280,440 l 40,0 0,40 -40,0 z M 320,440 l 40,0 0,40 -40,0 z M 360,440 l 40,0 0,40 -40,0 z M 400,440 l 40,0 0,40 -40,0 z M 600,440 l 40,0 0,40 -40,0 z M 640,440 l 40,0 0,40 -40,0 z M 680,440 l 40,0 0,40 -40,0 z M 720,440 l 40,0 0,40 -40,0 z M 800,440 l 40,0 0,40 -40,0 z M 960,440 l 40,0 0,40 -40,0 z M 0,480 l 40,0 0,40 -40,0 z M 200,480 l 40,0 0,40 -40,0 z M 240,480 l 40,0 0,40 -40,0 z M 360,480 l 40,0 0,40 -40,0 z M 480,480 l 40,0 0,40 -40,0 z M 520,480 l 40,0 0,40 -40,0 z M 560,480 l 40,0 0,40 -40,0 z M 680,480 l 40,0 0,40 -40,0 z M 720,480 l 40,0 0,40 -40,0 z M 760,480 l 40,0 0,40 -40,0 z M 800,480 l 40,0 0,40 -40,0 z M 880,480 l 40,0 0,40 -40,0 z M 920,480 l 40,0 0,40 -40,0 z M 960,480 l 40,0 0,40 -40,0 z M 0,520 l 40,0 0,40 -40,0 z M 160,520 l 40,0 0,40 -40,0 z M 200,520 l 40,0 0,40 -40,0 z M 280,520 l 40,0 0,40 -40,0 z M 320,520 l 40,0 0,40 -40,0 z M 360,520 l 40,0 0,40 -40,0 z M 400,520 l 40,0 0,40 -40,0 z M 440,520 l 40,0 0,40 -40,0 z M 520,520 l 40,0 0,40 -40,0 z M 560,520 l 40,0 0,40 -40,0 z M 640,520 l 40,0 0,40 -40,0 z M 760,520 l 40,0 0,40 -40,0 z M 840,520 l 40,0 0,40 -40,0 z M 920,520 l 40,0 0,40 -40,0 z M 0,560 l 40,0 0,40 -40,0 z M 80,560 l 40,0 0,40 -40,0 z M 160,560 l 40,0 0,40 -40,0 z M 200,560 l 40,0 0,40 -40,0 z M 240,560 l 40,0 0,40 -40,0 z M 320,560 l 40,0 0,40 -40,0 z M 600,560 l 40,0 0,40 -40,0 z M 640,560 l 40,0 0,40 -40,0 z M 760,560 l 40,0 0,40 -40,0 z M 800,560 l 40,0 0,40 -40,0 z M 840,560 l 40,0 0,40 -40,0 z M 920,560 l 40,0 0,40 -40,0 z M 960,560 l 40,0 0,40 -40,0 z M 0,600 l 40,0 0,40 -40,0 z M 80,600 l 40,0 0,40 -40,0 z M 120,600 l 40,0 0,40 -40,0 z M 320,600 l 40,0 0,40 -40,0 z M 360,600 l 40,0 0,40 -40,0 z M 400,600 l 40,0 0,40 -40,0 z M 440,600 l 40,0 0,40 -40,0 z M 560,600 l 40,0 0,40 -40,0 z M 600,600 l 40,0 0,40 -40,0 z M 680,600 l 40,0 0,40 -40,0 z M 760,600 l 40,0 0,40 -40,0 z M 800,600 l 40,0 0,40 -40,0 z M 960,600 l 40,0 0,40 -40,0 z M 0,640 l 40,0 0,40 -40,0 z M 160,640 l 40,0 0,40 -40,0 z M 200,640 l 40,0 0,40 -40,0 z M 240,640 l 40,0 0,40 -40,0 z M 280,640 l 40,0 0,40 -40,0 z M 360,640 l 40,0 0,40 -40,0 z M 400,640 l 40,0 0,40 -40,0 z M 480,640 l 40,0 0,40 -40,0 z M 520,640 l 40,0 0,40 -40,0 z M 600,640 l 40,0 0,40 -40,0 z M 640,640 l 40,0 0,40 -40,0 z M 680,640 l 40,0 0,40 -40,0 z M 720,640 l 40,0 0,40 -40,0 z M 760,640 l 40,0 0,40 -40,0 z M 800,640 l 40,0 0,40 -40,0 z M 880,640 l 40,0 0,40 -40,0 z M 320,680 l 40,0 0,40 -40,0 z M 360,680 l 40,0 0,40 -40,0 z M 400,680 l 40,0 0,40 -40,0 z M 440,680 l 40,0 0,40 -40,0 z M 520,680 l 40,0 0,40 -40,0 z M 600,680 l 40,0 0,40 -40,0 z M 640,680 l 40,0 0,40 -40,0 z M 800,680 l 40,0 0,40 -40,0 z M 840,680 l 40,0 0,40 -40,0 z M 0,720 l 40,0 0,40 -40,0 z M 40,720 l 40,0 0,40 -40,0 z M 80,720 l 40,0 0,40 -40,0 z M 120,720 l 40,0 0,40 -40,0 z M 160,720 l 40,0 0,40 -40,0 z M 200,720 l 40,0 0,40 -40,0 z M 240,720 l 40,0 0,40 -40,0 z M 320,720 l 40,0 0,40 -40,0 z M 480,720 l 40,0 0,40 -40,0 z M 520,720 l 40,0 0,40 -40,0 z M 560,720 l 40,0 0,40 -40,0 z M 640,720 l 40,0 0,40 -40,0 z M 720,720 l 40,0 0,40 -40,0 z M 800,720 l 40,0 0,40 -40,0 z M 880,720 l 40,0 0,40 -40,0 z M 920,720 l 40,0 0,40 -40,0 z M 960,720 l 40,0 0,40 -40,0 z M 0,760 l 40,0 0,40 -40,0 z M 240,760 l 40,0 0,40 -40,0 z M 440,760 l 40,0 0,40 -40,0 z M 480,760 l 40,0 0,40 -40,0 z M 640,760 l 40,0 0,40 -40,0 z M 800,760 l 40,0 0,40 -40,0 z M 840,760 l 40,0 0,40 -40,0 z M 0,800 l 40,0 0,40 -40,0 z M 80,800 l 40,0 0,40 -40,0 z M 120,800 l 40,0 0,40 -40,0 z M 160,800 l 40,0 0,40 -40,0 z M 240,800 l 40,0 0,40 -40,0 z M 320,800 l 40,0 0,40 -40,0 z M 360,800 l 40,0 0,40 -40,0 z M 400,800 l 40,0 0,40 -40,0 z M 520,800 l 40,0 0,40 -40,0 z M 560,800 l 40,0 0,40 -40,0 z M 600,800 l 40,0 0,40 -40,0 z M 640,800 l 40,0 0,40 -40,0 z M 680,800 l 40,0 0,40 -40,0 z M 720,800 l 40,0 0,40 -40,0 z M 760,800 l 40,0 0,40 -40,0 z M 800,800 l 40,0 0,40 -40,0 z M 880,800 l 40,0 0,40 -40,0 z M 920,800 l 40,0 0,40 -40,0 z M 0,840 l 40,0 0,40 -40,0 z M 80,840 l 40,0 0,40 -40,0 z M 120,840 l 40,0 0,40 -40,0 z M 160,840 l 40,0 0,40 -40,0 z M 240,840 l 40,0 0,40 -40,0 z M 320,840 l 40,0 0,40 -40,0 z M 360,840 l 40,0 0,40 -40,0 z M 400,840 l 40,0 0,40 -40,0 z M 440,840 l 40,0 0,40 -40,0 z M 560,840 l 40,0 0,40 -40,0 z M 680,840 l 40,0 0,40 -40,0 z M 720,840 l 40,0 0,40 -40,0 z M 800,840 l 40,0 0,40 -40,0 z M 840,840 l 40,0 0,40 -40,0 z M 880,840 l 40,0 0,40 -40,0 z M 920,840 l 40,0 0,40 -40,0 z M 960,840 l 40,0 0,40 -40,0 z M 0,880 l 40,0 0,40 -40,0 z M 80,880 l 40,0 0,40 -40,0 z M 120,880 l 40,0 0,40 -40,0 z M 160,880 l 40,0 0,40 -40,0 z M 240,880 l 40,0 0,40 -40,0 z M 320,880 l 40,0 0,40 -40,0 z M 400,880 l 40,0 0,40 -40,0 z M 520,880 l 40,0 0,40 -40,0 z M 640,880 l 40,0 0,40 -40,0 z M 840,880 l 40,0 0,40 -40,0 z M 880,880 l 40,0 0,40 -40,0 z M 960,880 l 40,0 0,40 -40,0 z M 0,920 l 40,0 0,40 -40,0 z M 240,920 l 40,0 0,40 -40,0 z M 320,920 l 40,0 0,40 -40,0 z M 560,920 l 40,0 0,40 -40,0 z M 600,920 l 40,0 0,40 -40,0 z M 640,920 l 40,0 0,40 -40,0 z M 760,920 l 40,0 0,40 -40,0 z M 800,920 l 40,0 0,40 -40,0 z M 840,920 l 40,0 0,40 -40,0 z M 960,920 l 40,0 0,40 -40,0 z M 0,960 l 40,0 0,40 -40,0 z M 40,960 l 40,0 0,40 -40,0 z M 80,960 l 40,0 0,40 -40,0 z M 120,960 l 40,0 0,40 -40,0 z M 160,960 l 40,0 0,40 -40,0 z M 200,960 l 40,0 0,40 -40,0 z M 240,960 l 40,0 0,40 -40,0 z M 320,960 l 40,0 0,40 -40,0 z M 400,960 l 40,0 0,40 -40,0 z M 520,960 l 40,0 0,40 -40,0 z M 560,960 l 40,0 0,40 -40,0 z M 600,960 l 40,0 0,40 -40,0 z M 680,960 l 40,0 0,40 -40,0 z M 720,960 l 40,0 0,40 -40,0 z M 760,960 l 40,0 0,40 -40,0 z M 800,960 l 40,0 0,40 -40,0 z M 840,960 l 40,0 0,40 -40,0 z M 880,960 l 40,0 0,40 -40,0 z M 920,960 l 40,0 0,40 -40,0 z M 960,960 l 40,0 0,40 -40,0 z " />
	</g>
</svg>
